HIERARCHY
ROOT Hips
{
	OFFSET 0.00000 0.00000 0.00000
	CHANNELS 6 Xposition Yposition Zposition Zrotation Yrotation Xrotation 
	JOINT LHipJoint
	{
		OFFSET 0 0 0
		CHANNELS 3 Zrotation Yrotation Xrotation
		JOINT LeftHip
		{
			OFFSET 1.75344 -1.53157 0.77399
			CHANNELS 3 Zrotation Yrotation Xrotation
			JOINT LeftKnee
			{
				OFFSET 2.25415 -6.19323 0.00000
				CHANNELS 3 Zrotation Yrotation Xrotation
				JOINT LeftAnkle
				{
					OFFSET 2.30342 -6.32861 0.00000
					CHANNELS 3 Zrotation Yrotation Xrotation
					JOINT LeftToe
					{
						OFFSET 0.10958 -0.30108 1.49206
						CHANNELS 3 Zrotation Yrotation Xrotation
						End Site
						{
							OFFSET 0.00000 -0.00000 0.77783
						}
					}
				}
			}
		}
	}
	JOINT RHipJoint
	{
		OFFSET 0 0 0
		CHANNELS 3 Zrotation Yrotation Xrotation
		JOINT RightHip
		{
			OFFSET -1.81912 -1.53156 0.77399
			CHANNELS 3 Zrotation Yrotation Xrotation
			JOINT RightKnee
			{
				OFFSET -2.22882 -6.12365 0.00000
				CHANNELS 3 Zrotation Yrotation Xrotation
				JOINT RightAnkle
				{
					OFFSET -2.21943 -6.09785 0.00000
					CHANNELS 3 Zrotation Yrotation Xrotation
					JOINT RightToe
					{
						OFFSET -0.18931 -0.52012 1.59379
						CHANNELS 3 Zrotation Yrotation Xrotation
						End Site
						{
							OFFSET -0.00000 -0.00000 0.84686
						}
					}
				}
			}
		}
	}
	JOINT lowerback
	{
		OFFSET 0 0 0
		CHANNELS 3 Zrotation Yrotation Xrotation
		JOINT Chest
		{
			OFFSET -0.00200 1.66634 -0.14248
			CHANNELS 3 Zrotation Yrotation Xrotation
			JOINT Chest2
			{
				OFFSET -0.00875 1.64542 0.09514
				CHANNELS 3 Zrotation Yrotation Xrotation
				JOINT lowerneck
				{
					OFFSET 0 0 0
					CHANNELS 3 Zrotation Yrotation Xrotation
					JOINT Neck
					{
						OFFSET 0.02257 1.59605 0.00839
						CHANNELS 3 Zrotation Yrotation Xrotation
						JOINT Head
						{
							OFFSET -0.10214 1.57530 -0.23335
							CHANNELS 3 Zrotation Yrotation Xrotation
							End Site
							{
								OFFSET -0.03588 1.60717 -0.08062
							}
						}
					}
				}
				JOINT LeftCollar
				{
					OFFSET 0 0 0
					CHANNELS 3 Zrotation Yrotation Xrotation
					JOINT LeftShoulder
					{
						OFFSET 2.54983 1.10186 0.40078
CHANNELS 3 Zrotation Xrotation Yrotation
						JOINT LeftElbow
						{
OFFSET 0 -4.288400 0.000000
CHANNELS 3 Zrotation Xrotation Yrotation
							JOINT LeftWrist
							{
OFFSET 0 -3.065520 -0.000000
CHANNELS 3 Zrotation Xrotation Yrotation
								JOINT lhand
								{
									OFFSET 0 0 0
CHANNELS 3 Zrotation Xrotation Yrotation
									JOINT LFingers
									{
OFFSET 0 -0.753040 0.000000
CHANNELS 3 Zrotation Xrotation Yrotation
										End Site
										{
OFFSET 0 -0.607120 0.000000
										}
									}
								}
								JOINT LThumb
								{
OFFSET 0 0.000000 0.000000
CHANNELS 3 Zrotation Xrotation Yrotation
									End Site
									{
OFFSET 0 -0.616390 0.616390
									}
								}
							}
						}
					}
				}
				JOINT RightCollar
				{
					OFFSET 0 0 0
					CHANNELS 3 Zrotation Yrotation Xrotation
					JOINT RightShoulder
					{
						OFFSET -2.60909 1.35448 0.21802
CHANNELS 3 Zrotation Xrotation Yrotation
						JOINT RightElbow
						{
OFFSET 0 -4.521720 -0.000000
CHANNELS 3 Zrotation Xrotation Yrotation
							JOINT RightWrist
							{
OFFSET 0 -2.891400 0.000000
CHANNELS 3 Zrotation Xrotation Yrotation
								JOINT rhand
								{
									OFFSET 0 0 0
CHANNELS 3 Zrotation Xrotation Yrotation
									JOINT RFingers
									{
OFFSET 0 -0.680540 0.000000
CHANNELS 3 Zrotation Xrotation Yrotation
										End Site
										{
OFFSET 0 -0.548670 0.000000
										}
									}
								}
								JOINT RThumb
								{
OFFSET 0 0.000000 0.000000
CHANNELS 3 Zrotation Xrotation Yrotation
									End Site
									{
OFFSET 0 -0.557050 0.557050
									}
								}
							}
						}
					}
				}
			}
		}
	}
}
MOTION
Frames: 8
Frame Time: 0.008333333333333333
-0.225742 15.644366 -34.416780 158.247683 78.801293 -562.976730 0.000000 0.000000 0.000000 -14.907490 -18.235003 -14.457145 3.093924 10.845253 31.760147 2.681159 10.260514 -35.855332 0.495703 4.507567 12.510311 0.000000 0.000000 0.000000 28.393037 16.409194 8.854391 -1.063040 -6.554909 18.403156 1.454205 -27.259368 -29.358862 -1.153541 -6.817878 19.177566 2.733971 -1.658010 5.171350 3.294205 -1.535230 -6.061395 2.160519 -0.734179 -9.313781 -5.718158 -4.089652 -11.929756 8.298831 -6.115274 24.524735 3.188144 -2.201394 10.212719 0.000000 0.000000 0.000000 44.404144 -48.611773 -25.117473 16.859749 -26.672555 4.024156 13.383079 17.829134 46.961050 0.000000 0.000000 0.000000 -7.125000 0.000000 0.000000 -12.372299 -16.824099 -15.728652 0.000000 0.000000 0.000000 -57.780284 -48.019137 14.372689 -16.444752 -26.119984 -3.839713 -6.613661 23.823330 35.166433 0.000000 0.000000 0.000000 7.125000 0.000000 0.000000 32.177938 62.421149 -14.409988
0.252929 15.685639 -34.503918 155.401297 81.157844 -566.124225 0.000000 0.000000 0.000000 -13.599685 -25.683714 -15.308875 2.542729 9.915121 28.702470 1.880096 15.834632 -35.612090 0.382755 -3.972464 -10.999338 0.000000 0.000000 0.000000 28.729616 14.237680 10.897767 -0.890029 -6.012713 16.821589 1.327855 -25.380519 -26.576933 -1.148499 -6.802502 19.132487 2.790944 -1.342498 6.065145 3.495588 -1.020760 -6.349348 2.318495 -0.467868 -10.184108 -5.380745 -4.278329 -12.082474 7.696014 -6.326008 24.926731 2.891044 -2.324581 10.374867 0.000000 0.000000 0.000000 43.580173 -47.812716 -26.055899 16.928362 -26.763223 4.055052 14.670500 16.233667 47.342784 0.000000 0.000000 0.000000 -7.125000 0.000000 0.000000 -11.859364 -17.434264 -15.134002 0.000000 0.000000 0.000000 -57.808774 -47.175560 15.714804 -16.470198 -26.153496 -3.851229 -6.280226 23.147080 35.773378 0.000000 0.000000 0.000000 7.125000 0.000000 0.000000 33.204327 62.836500 -15.249027
0.720457 15.734004 -34.607893 156.141334 83.819052 -565.837457 0.000000 0.000000 0.000000 -11.326595 -33.039749 -15.835913 2.289331 9.444462 27.195735 2.793517 16.555120 -40.710244 0.100370 -2.016953 -5.553151 0.000000 0.000000 0.000000 29.192633 11.327938 13.304923 -0.610810 -5.001863 13.913964 1.637049 -24.701777 -21.778897 -0.393478 -4.024704 11.146514 4.046134 -1.057888 6.001353 3.477177 -0.536480 -5.935512 1.506755 -0.330666 -9.707854 -5.133954 -4.279790 -12.156761 7.486904 -6.340737 24.761060 2.766591 -2.341940 10.312716 0.000000 0.000000 0.000000 44.201810 -47.724836 -26.083780 16.857180 -26.669141 4.023060 14.877980 15.859007 47.384607 0.000000 0.000000 0.000000 -7.125000 0.000000 0.000000 -11.773294 -17.514792 -15.030937 0.000000 0.000000 0.000000 -58.162930 -47.264209 15.921584 -16.161581 -25.739177 -3.715909 -4.301789 22.403094 34.298368 0.000000 0.000000 0.000000 7.125000 0.000000 0.000000 33.566162 61.126147 -14.075384
1.182434 15.774181 -34.736270 157.481192 87.266140 -564.153917 0.000000 0.000000 0.000000 -8.227693 -39.861645 -16.746162 2.208788 9.288097 26.700701 4.619884 17.332605 -48.709722 0.115286 2.183929 6.014545 0.000000 0.000000 0.000000 29.342921 9.340893 16.228098 -0.306016 -3.555134 9.828481 0.995042 -20.885678 -20.362051 -0.586091 -4.873974 13.554643 5.261268 -0.652185 5.878598 3.600831 0.153472 -5.985871 0.861049 -0.070455 -9.700207 -5.149559 -4.044728 -12.204147 7.647879 -6.059011 24.957168 2.867092 -2.192913 10.377795 0.000000 0.000000 0.000000 44.343754 -47.244185 -25.280807 16.789537 -26.579479 3.992707 15.390226 15.818324 47.967257 0.000000 0.000000 0.000000 -7.125000 0.000000 0.000000 -11.659803 -18.173019 -14.965851 0.000000 0.000000 0.000000 -58.200579 -47.425672 16.781847 -16.185674 -25.771714 -3.726296 -6.005731 23.888669 35.542885 0.000000 0.000000 0.000000 7.125000 0.000000 0.000000 33.219441 62.576267 -15.054135
1.674681 15.742271 -34.871475 73.246951 89.195069 -648.764301 0.000000 0.000000 0.000000 -7.836527 -42.121396 -16.285066 2.037564 8.943961 25.620184 5.475820 16.618081 -51.377777 0.579832 4.866885 13.531224 0.000000 0.000000 0.000000 29.078975 8.128118 19.806683 -0.149034 -2.484824 6.847773 0.974202 -20.061931 -18.696081 -0.562673 -4.775804 13.275413 4.900639 -0.310061 6.494926 3.216962 0.561124 -5.929745 0.597748 0.121658 -9.987227 -4.446401 -3.939336 -12.073223 7.321016 -5.996561 24.937089 2.637934 -2.142205 10.305964 0.000000 0.000000 0.000000 45.444571 -47.242778 -24.024457 16.516146 -26.215472 3.871213 16.341962 15.551905 48.655299 0.000000 0.000000 0.000000 -7.125000 0.000000 0.000000 -11.381691 -19.022871 -14.700974 0.000000 0.000000 0.000000 -59.870542 -46.606652 20.692197 -17.353975 -27.319948 -4.249620 -5.995823 20.107613 36.884206 0.000000 0.000000 0.000000 7.125000 0.000000 0.000000 34.821600 63.664379 -16.758264
2.208967 15.683315 -35.030859 -5.305111 86.263244 -727.118280 0.000000 0.000000 0.000000 -7.159267 -43.091098 -15.312935 1.960961 8.784375 25.123052 6.065896 17.547711 -53.876766 0.874508 5.959679 16.668280 0.000000 0.000000 0.000000 28.992593 7.663453 22.569345 -0.063954 -1.632260 4.490320 0.934797 -18.803811 -16.101353 -0.341036 -3.752273 10.380865 4.935609 -0.093280 6.594735 3.262512 0.868012 -5.975108 0.582405 0.266530 -10.090333 -5.218591 -3.779730 -12.237490 7.512183 -5.664967 24.870704 2.876283 -2.054162 10.319439 0.000000 0.000000 0.000000 47.552922 -45.779715 -21.987795 16.877611 -26.696213 4.032211 18.052849 13.490015 49.391255 0.000000 0.000000 0.000000 -7.125000 0.000000 0.000000 -10.796955 -20.086890 -14.042652 0.000000 0.000000 0.000000 -59.844411 -48.338015 21.841510 -17.448387 -27.445055 -4.291932 -5.785386 20.560669 36.766994 0.000000 0.000000 0.000000 7.125000 0.000000 0.000000 34.890148 63.514198 -16.673551
2.785184 15.591149 -35.207784 -13.657594 83.194250 -735.076948 0.000000 0.000000 0.000000 -7.256020 -43.100637 -13.592965 1.904140 8.663394 24.748022 6.836081 17.389607 -56.284731 2.091556 9.043877 25.940048 0.000000 0.000000 0.000000 28.802545 7.290533 23.688958 -0.078563 -1.808270 4.976007 0.723874 -16.548196 -13.973545 -0.041369 -1.311228 3.605668 4.759126 0.018722 6.455281 2.969584 0.963390 -6.147386 0.355544 0.306054 -10.189607 -4.959863 -3.705180 -12.126247 7.250751 -5.567085 24.636537 2.745291 -2.033441 10.189033 0.000000 0.000000 0.000000 49.618620 -44.853729 -20.701275 16.941138 -26.780121 4.060792 20.641777 11.730339 50.426655 0.000000 0.000000 0.000000 -7.125000 0.000000 0.000000 -9.940407 -21.657018 -13.055246 0.000000 0.000000 0.000000 -59.735686 -49.444389 23.004097 -17.602229 -27.644767 -4.363112 -5.780995 21.129790 35.870717 0.000000 0.000000 0.000000 7.125000 0.000000 0.000000 33.822869 62.786728 -15.527838
3.429722 15.496791 -35.416187 -22.152674 80.724993 -742.968446 0.000000 0.000000 0.000000 -7.303673 -42.613203 -11.843248 1.893766 8.641287 24.679447 6.967304 19.032621 -57.484367 2.077011 9.018251 25.856956 0.000000 0.000000 0.000000 28.818779 5.969768 25.149951 -0.065274 -1.647798 4.533160 0.552691 -14.286435 -11.554777 -0.000995 0.181437 -0.498486 4.844200 0.114799 5.825066 2.825418 1.049871 -6.269272 0.143524 0.339190 -9.940454 -4.628434 -3.681117 -12.136849 6.633312 -5.458969 24.210698 2.472462 -2.045633 10.000862 0.000000 0.000000 0.000000 50.241066 -44.917626 -20.159786 17.024497 -26.890073 4.098462 18.955498 12.202583 50.155403 0.000000 0.000000 0.000000 -7.125000 0.000000 0.000000 -10.592744 -21.011723 -13.867634 0.000000 0.000000 0.000000 -61.263883 -49.110431 23.264872 -18.062559 -28.237164 -4.578878 -5.684529 20.307699 35.703489 0.000000 0.000000 0.000000 7.125000 0.000000 0.000000 33.727110 62.625470 -15.350721
